<svg xmlns="http://www.w3.org/2000/svg" xmlns:xlink="http://www.w3.org/1999/xlink" version="1.1" width="81.37404288150609" height="104.21321524478734" viewBox="-0.15967527676492765 -0.18787524748712614 81.37404288150609 104.21321524478734">
  <!-- Exported by Scratch - http://scratch.mit.edu/ -->
  <g id="ID0.9007132463157177">
    <path id="ID0.635999025311321" fill="#FFFF00" stroke="none" d="M 45.4339 94.3398 C 42.7181 89.8562 42.0781 84.6904 43.2387 79.9667 C 44.3979 75.2426 47.3577 70.9607 51.8413 68.2449 C 56.3249 65.529 61.4908 64.8891 66.2145 66.0497 C 70.9385 67.2089 75.2204 70.1687 77.9363 74.6523 C 80.6521 79.1359 81.292 84.3017 80.1314 89.0254 C 78.9722 93.7494 76.0124 98.0314 71.5288 100.7472 C 67.0452 103.463 61.8794 104.103 57.1557 102.9424 C 52.4317 101.7832 48.1498 98.8234 45.4339 94.3398 Z " stroke-width="0.999999939849836"/>
    <path id="ID0.6650710590183735" fill="#FFFF00" stroke="none" d="M 45.7042 95.0529 L 0.3711 20.212 L 33.1733 0.3429 L 78.5063 75.1838 L 45.7042 95.0529 Z " stroke-width="1.0615505109006134"/>
    <path id="ID0.7266976400278509" fill="#FFFFFF" stroke="none" d="M 51.3695 92.304 L 8.3678 21.312 L 29.9648 8.2302 L 72.9664 79.2221 L 51.3695 92.304 Z " stroke-width="0.988216041611267"/>
    <path id="ID0.5143490335904062" fill="#FFFFFF" stroke="none" d="M 50.6928 90.7352 C 48.8883 87.756 48.4634 84.3235 49.2335 81.1845 C 50.0049 78.0457 51.9712 75.2004 54.9504 73.3958 C 57.9296 71.5912 61.3621 71.1663 64.5011 71.9364 C 67.6399 72.7078 70.4852 74.6742 72.2898 77.6534 C 74.0944 80.6326 74.5192 84.065 73.7491 87.2041 C 72.9778 90.3429 71.0114 93.1882 68.0322 94.9928 C 65.053 96.7973 61.6206 97.2222 58.4815 96.4521 C 55.3427 95.6807 52.4974 93.7144 50.6928 90.7352 Z " stroke-width="0.9266054668971248"/>
  </g>
</svg>