<svg xmlns="http://www.w3.org/2000/svg" xmlns:xlink="http://www.w3.org/1999/xlink" version="1.1" width="88.90901947021484" height="102.4662857055664" viewBox="2.902078628540039 1.2077428102493286 88.90901947021484 102.4662857055664">
  <!-- Exported by Scratch - http://scratch.mit.edu/ -->
  <g id="ID0.728828398976475">
    <path id="ID0.3072393317706883" fill="#F9A41E" d="M 46.1036 78.7697 C 46.1036 78.7697 49.5629 95.0387 56.6056 100.9728 C 63.7106 107.0184 71.2916 99.1289 65.7903 95.0383 C 62.4745 92.5046 54.472 84.3288 52.2267 78.3464 C 49.9322 72.5376 45.0033 74.7061 46.1036 78.7697 Z " stroke-width="0.9024999514803906"/>
    <path id="ID0.33640219923108816" fill="#F9A41E" d="M 26.5371 12.7276 C 34.7063 23.2955 37.1129 34.6702 37.1129 34.6702 L 23.8829 49.5895 C 23.8829 49.5895 13.2562 37.7627 12.7506 33.5862 C 12.7506 33.5862 16.3372 24.5654 19.6147 21.2726 " stroke-width="0.9024999514803906"/>
    <path id="ID0.8955257972702384" fill="#F9A41E" d="M 26.5371 12.7276 C 26.5371 12.7276 22.1079 5.8452 17.6256 2.7936 C 11.5295 -1.1841 4.9153 6.6041 11.2764 12.6266 C 14.6183 15.7304 18.283 19.0195 20.473 22.5475 " stroke-width="0.9024999514803906"/>
    <path id="ID0.2634306978434324" fill="none" stroke="#231F20" stroke-linecap="round" stroke-linejoin="round" d="M 26.5371 12.7276 C 34.3866 24.4244 37.1129 34.6702 37.1129 34.6702 L 23.8829 49.5895 C 23.8829 49.5895 13.2562 37.7627 12.7506 33.5862 C 12.7506 33.5862 16.3372 24.5654 19.6147 21.2726 " stroke-width="0.9024999514803906"/>
    <path id="ID0.3834887407720089" fill="#FFFFFF" d="M 33.362 36.9847 C 32.7827 33.0687 28.9583 25.0444 24.4474 25.7367 C 19.9366 26.429 14.8277 36.5194 23.5233 44.2349 C 29.7223 49.8363 33.8545 40.8762 33.362 36.9847 Z " stroke-width="0.9024999514803906"/>
    <path id="ID0.0825743293389678" fill="none" stroke="#231F20" stroke-linecap="round" stroke-linejoin="round" d="M 26.5371 12.7276 C 26.5371 12.7276 22.1079 5.8452 17.6256 2.7936 C 11.5295 -1.1841 4.9153 6.6041 11.2764 12.6266 C 14.6183 15.7304 18.283 19.0195 20.473 22.5475 " stroke-width="0.9024999514803906"/>
    <path id="ID0.4248275365680456" fill="#F9A41E" d="M 8.136 37.6258 C 3.5161 34.0663 2.1276 28.7017 4.6367 25.4727 C 6.7377 22.6909 11.4253 23.3619 14.718 26.6394 C 18.3712 30.3004 19.6843 35.2685 17.8192 38.2108 C 15.9165 40.955 12.0727 40.6168 8.136 37.6258 Z " stroke-width="0.9024999514803906"/>
    <path id="ID0.4170016339048743" fill="none" stroke="#231F20" stroke-linecap="round" stroke-linejoin="round" d="M 8.136 37.6258 C 3.5161 34.0663 2.1276 28.7017 4.6367 25.4727 C 6.7377 22.6909 11.4253 23.3619 14.718 26.6394 C 18.3712 30.3004 19.6843 35.2685 17.8192 38.2108 C 15.9165 40.955 12.0727 40.6168 8.136 37.6258 Z " stroke-width="0.9024999514803906"/>
    <path id="ID0.4534302558749914" fill="#F9A41E" d="M 42.785 26.8967 C 42.785 26.8967 47.399 17.2288 41.323 11.1933 C 34.5261 4.3908 29.4519 13.3654 34.3583 17.569 C 39.812 22.4903 36.9516 29.278 36.9516 29.278 L 42.785 26.8967 Z " stroke-width="0.9024999514803906"/>
    <path id="ID0.8974373424425721" fill="none" stroke="#231F20" stroke-linecap="round" stroke-linejoin="round" d="M 46.1036 78.7697 C 46.1036 78.7697 49.5629 95.0387 56.6056 100.9728 C 63.7106 107.0184 71.2916 99.1289 65.7903 95.0383 C 62.4745 92.5046 54.472 84.3288 52.2267 78.3464 C 49.9322 72.5376 45.0033 74.7061 46.1036 78.7697 Z " stroke-width="0.9024999514803906"/>
    <path id="ID0.1449340949766338" fill="none" stroke="#231F20" stroke-linecap="round" stroke-linejoin="round" d="M 42.785 26.8967 C 42.785 26.8967 47.5466 16.7078 41.323 11.1933 C 34.1427 4.7512 29.4519 13.3654 34.3583 17.569 C 39.812 22.4903 36.9516 29.278 36.9516 29.278 L 42.785 26.8967 Z " stroke-width="0.9024999514803906"/>
    <path id="ID0.8441412895917892" fill="#F9A41E" d="M 77.364 60.7962 C 78.4806 55.8597 77.5148 50.99 77.5148 50.99 L 91.3111 39.7017 L 70.798 35.9558 C 70.798 35.9558 68.2285 29.1311 56.6157 25.0919 C 43.7004 20.6837 29.4292 30.3367 23.3427 46.5287 C 15.1236 67.9323 19.8554 87.6571 34.7126 90.1764 C 42.5132 91.4475 44.9424 85.8509 44.9424 85.8509 C 44.9424 85.8509 49.7444 87.7737 56.6705 86.1709 C 63.6834 84.5926 67.764 80.1203 67.764 80.1203 L 80.7078 80.7845 L 74.3968 69.6172 C 74.3968 69.6172 76.0736 65.6835 77.364 60.7962 Z " stroke-width="0.9024999514803906"/>
    <path id="ID0.7266229740343988" fill="#FFFFFF" d="M 45.1195 66.0156 C 45.8075 57.9561 59.5163 41.015 47.7729 34.1248 C 35.1105 26.5054 27.1621 36.3545 23.3673 46.4419 C 11.6239 76.9777 26.1697 89.5391 34.7372 90.0895 C 41.0731 90.5707 43.2886 89.0408 44.9669 85.7641 C 48.545 78.4293 44.3202 74.1374 45.1195 66.0156 Z " stroke-width="0.9024999514803906"/>
    <path id="ID0.07941257441416383" fill="none" stroke="#231F20" stroke-width="0.6317499660362734" stroke-linecap="round" stroke-linejoin="round" d="M 79.2223 49.5976 L 75.2255 52.7804 "/>
    <path id="ID0.3073604479432106" fill="none" stroke="#231F20" stroke-linecap="round" stroke-linejoin="round" d="M 77.364 60.7962 C 78.4806 55.8597 77.5148 50.99 77.5148 50.99 L 91.3111 39.7017 L 70.798 35.9558 C 70.798 35.9558 68.2285 29.1311 56.6157 25.0919 C 43.7004 20.6837 29.4292 30.3367 23.3427 46.5287 C 15.1236 67.9323 19.8554 87.6571 34.7126 90.1764 C 42.5132 91.4475 44.9424 85.8509 44.9424 85.8509 C 44.9424 85.8509 49.7444 87.7737 56.6705 86.1709 C 63.6834 84.5926 67.764 80.1203 67.764 80.1203 L 80.7078 80.7845 L 74.3968 69.6172 C 74.3968 69.6172 76.0736 65.6835 77.364 60.7962 Z " stroke-width="0.9024999514803906"/>
    <path id="ID0.399786364287138" fill="#FFFFFF" stroke="#231F20" stroke-linecap="round" stroke-linejoin="round" d="M 57.1362 83.864 C 51.5242 85.4638 46.2272 83.9637 45.153 80.4702 C 44.0788 76.9768 47.8628 72.8895 53.4994 71.2029 C 59.1114 69.6031 64.4084 71.1032 65.4826 74.5966 C 66.47 78.0654 62.7483 82.2642 57.1362 83.864 Z " stroke-width="0.9024999514803906"/>
    <path id="ID0.012973028235137463" fill="#231F20" d="M 54.4226 81.4975 C 53.1954 81.5252 52.2633 80.5108 52.3601 79.5064 C 52.3701 78.4775 53.3845 77.5454 54.5871 77.6046 C 55.8144 77.5769 56.7465 78.5913 56.6496 79.5957 C 56.5528 80.6 55.563 81.4453 54.4226 81.4975 " stroke-width="0.9024999514803906"/>
    <path id="ID0.4833636190742254" fill="#FFFFFF" stroke="#231F20" stroke-linecap="round" stroke-linejoin="round" d="M 61.4271 57.7835 C 55.815 59.3833 50.2937 57.3506 49.1065 53.2624 C 47.9193 49.1742 51.5035 44.4675 57.1156 42.8677 C 62.7276 41.2679 68.2489 43.3006 69.4361 47.3888 C 70.6233 51.477 67.0391 56.1837 61.4271 57.7835 Z " stroke-width="0.9024999514803906"/>
    <path id="ID0.2379798092879355" fill="#231F20" d="M 58.5267 55.0828 C 57.3979 54.7631 56.7754 53.6488 57.0705 52.6068 C 57.3411 51.6516 58.5668 50.967 59.6956 51.2867 C 60.8245 51.6064 61.4469 52.7206 61.1518 53.7626 C 60.7452 54.8669 59.6556 55.4025 58.5267 55.0828 " stroke-width="0.9024999514803906"/>
    <path id="ID0.00844710785895586" fill="#231F20" stroke="#231F20" stroke-width="0.6317499660362734" stroke-linecap="round" stroke-linejoin="round" d="M 47.7722 65.9227 C 47.5409 67.7332 47.5239 71.1051 45.3415 70.8623 C 44.4731 70.6163 41.4048 67.8714 41.9327 65.6759 C 42.4361 63.5673 45.9496 60.4351 47.5256 61.1629 C 49.0149 61.8661 47.9544 64.2859 47.7722 65.9227 Z "/>
    <path id="ID0.7077047214843333" fill="none" stroke="#231F20" stroke-linecap="round" stroke-linejoin="round" d="M 37.0476 70.6707 C 34.939 70.1674 37.2369 56.0916 39.8796 57.0277 " stroke-width="0.9024999514803906"/>
    <path id="ID0.41016054805368185" fill="#231F20" stroke="#231F20" stroke-width="0.6317499660362734" stroke-linecap="round" stroke-linejoin="round" opacity="0.1" d="M 35.2787 29.5546 C 34.9544 28.7123 34.5679 27.7587 34.206 26.7182 "/>
    <path id="ID0.8669978589750826" fill="#231F20" stroke="#231F20" stroke-width="0.6317499660362734" stroke-linecap="round" stroke-linejoin="round" opacity="0.1" d="M 22.615 48.1048 C 22.1923 47.6099 21.5584 46.8676 20.949 46.0384 "/>
  </g>
</svg>