<svg xmlns="http://www.w3.org/2000/svg" xmlns:xlink="http://www.w3.org/1999/xlink" version="1.1" width="106.81155057475306" height="39.41205258891321" viewBox="0.4192247603071886 -0.16907528899777358 106.81155057475306 39.41205258891321">
  <!-- Exported by Scratch - http://scratch.mit.edu/ -->
  <g id="ID0.9007132463157177">
    <path id="ID0.635999025311321" fill="#FFFF00" stroke="none" d="M 87.7 0.5 C 82.458 0.5 77.708 2.629 74.269 6.069 C 70.829 9.508 68.7 14.258 68.7 19.5 C 68.7 24.742 70.829 29.492 74.269 32.931 C 77.708 36.371 82.458 38.5 87.7 38.5 C 92.942 38.5 97.692 36.371 101.131 32.931 C 104.571 29.492 106.7 24.742 106.7 19.5 C 106.7 14.258 104.571 9.508 101.131 6.069 C 97.692 2.629 92.942 0.5 87.7 0.5 Z " stroke-width="1"/>
    <path id="ID0.6650710590183735" fill="#FFFF00" stroke="none" d="M 88.45 0.3617 L 0.95 0.3617 L 0.95 38.7122 L 88.45 38.7122 L 88.45 0.3617 Z " stroke-width="1.0615505747530545"/>
    <path id="ID0.7266976400278509" fill="#FFFFFF" stroke="none" d="M 89.0339 6.6316 L 6.0339 6.6316 L 6.0339 31.8816 L 89.0339 31.8816 L 89.0339 6.6316 Z " stroke-width="0.9882161010526275"/>
    <path id="ID0.5143490335904062" fill="#FFFFFF" stroke="none" d="M 87.3415 6.8656 C 83.8584 6.8656 80.7024 8.2805 78.4164 10.5655 C 76.1314 12.8515 74.7165 16.0075 74.7165 19.4906 C 74.7165 22.9737 76.1314 26.1297 78.4164 28.4157 C 80.7024 30.7007 83.8584 32.1156 87.3415 32.1156 C 90.8246 32.1156 93.9806 30.7007 96.2666 28.4157 C 98.5516 26.1297 99.9665 22.9737 99.9665 19.4906 C 99.9665 16.0075 98.5516 12.8515 96.2666 10.5655 C 93.9806 8.2805 90.8246 6.8656 87.3415 6.8656 Z " stroke-width="0.9266055226325989"/>
  </g>
</svg>