<svg xmlns="http://www.w3.org/2000/svg" xmlns:xlink="http://www.w3.org/1999/xlink" version="1.1" width="106.68544006347656" height="70.99055480957031" viewBox="0.4392862319946289 0.7321000099182129 106.68544006347656 70.99055480957031">
  <!-- Exported by Scratch - http://scratch.mit.edu/ -->
  <g id="ID0.8804858233779669">
    <g id="Layer_3">
      <path id="ID0.8451694184914231" fill="#F9A41F" d="M 16.0319 49.588 C 13.8027 48.0447 12.088 45.987 11.0591 43.5006 C 8.5728 37.1561 10.459 29.7826 6.3436 29.8684 C 2.3139 29.9541 -3.0018 40.9285 5.4005 49.245 C 7.8869 51.6457 10.8877 53.5319 14.06 54.9037 C 14.7459 55.2467 20.7475 57.5616 24.0912 55.6754 C 27.435 53.7891 26.4062 52.4173 25.9775 51.7314 C 25.5488 50.9598 18.6898 51.56 16.0319 49.588 Z " stroke-width="0.8573749661445618"/>
      <path id="ID0.6858935537748039" fill="#FFFFFF" d="M 6.6865 29.9541 C 4.8003 29.6112 1.7995 33.1264 1.1993 36.4702 C 0.7706 38.9565 1.0279 41.5287 1.7995 43.9293 C 2.6569 45.3869 3.0856 42.3003 5.4862 41.7001 C 7.201 41.3572 8.9157 41.5287 10.5447 42.2146 C 10.5447 42.2146 9.6873 37.3275 9.2587 34.6697 C 8.9157 31.9261 8.6585 30.3828 6.6865 29.9541 Z " stroke-width="0.8573749661445618"/>
      <path id="ID0.17426032526418567" fill="none" stroke="#231F20" stroke-linecap="round" stroke-linejoin="round" d="M 16.0319 49.588 C 13.8027 48.0447 12.088 45.987 11.0591 43.5006 C 8.5728 37.1561 10.459 29.7826 6.3436 29.8684 C 2.3139 29.9541 -3.0018 40.9285 5.4005 49.245 C 7.8869 51.6457 10.8877 53.5319 14.06 54.9037 C 14.7459 55.2467 20.7475 57.5616 24.0912 55.6754 C 27.435 53.7891 26.4062 52.4173 25.9775 51.7314 C 25.5488 50.9598 18.6898 51.56 16.0319 49.588 Z " stroke-width="0.8573749661445618"/>
    </g>
    <g id="ID0.8015054534189403">
      <path id="ID0.35254472540691495" fill="#F9A41F" d="M 76.8198 65.4494 C 76.8198 65.4494 91.3094 72.7371 100.3119 70.9366 C 109.2286 69.1361 107.8568 58.5904 101.4265 60.2194 C 97.3968 61.2483 86.3367 62.3629 80.4208 60.4767 C 74.4192 58.5904 73.1331 63.7347 76.8198 65.4494 Z " stroke-width="0.8573749661445618"/>
      <path id="ID0.18118325853720307" fill="none" stroke="#231F20" stroke-linecap="round" stroke-linejoin="round" d="M 76.8198 65.4494 C 76.8198 65.4494 91.3094 72.7371 100.3119 70.9366 C 109.2286 69.1361 107.8568 58.5904 101.4265 60.2194 C 97.3968 61.2483 86.3367 62.3629 80.4208 60.4767 C 74.4192 58.5904 73.1331 63.7347 76.8198 65.4494 Z " stroke-width="0.8573749661445618"/>
    </g>
    <path id="ID0.9482145281508565" fill="#231F20" stroke="#231F20" stroke-linecap="round" stroke-linejoin="round" opacity="0.1" d="M 34.8942 50.4096 C 33.6081 48.6949 32.1506 47.2373 30.4358 46.037 C 29.6642 42.9505 29.5784 39.7782 30.2643 36.6916 C 32.9222 39.521 35.2371 42.6075 37.2091 46.037 C 38.9238 48.6091 37.3806 53.4962 34.8942 50.4096 Z " stroke-width="0.8573749661445618"/>
    <g id="ID0.05117864953354001">
      <path id="ID0.1841080985032022" fill="#F9A41F" d="M 37.1233 45.9013 C 37.1233 45.9013 31.3789 35.4413 25.463 33.2121 C 16.8893 30.0398 14.8316 37.4133 18.1754 40.757 C 22.2908 44.9582 27.6922 41.1 34.8942 50.2739 C 37.3806 53.4462 38.9238 48.6449 37.1233 45.9013 Z " stroke-width="0.8573749661445618"/>
      <path id="ID0.6833870257250965" fill="none" stroke="#231F20" stroke-linecap="round" stroke-linejoin="round" d="M 37.1233 45.9013 C 37.1233 45.9013 31.3789 35.4413 25.463 33.2121 C 16.8893 30.0398 14.8316 37.4133 18.1754 40.757 C 22.2908 44.9582 27.6922 41.1 34.8942 50.2739 C 37.3806 53.4462 38.9238 48.6449 37.1233 45.9013 Z " stroke-width="0.8573749661445618"/>
    </g>
    <g id="ID0.48522777296602726">
      <path id="ID0.7030626530759037" fill="#F9A41F" d="M 52.0417 63.306 C 52.0417 63.306 42.2676 67.5929 25.3773 68.0216 C 8.9157 68.4502 0.7706 65.0207 1.8852 60.2194 C 3.1713 54.3893 8.487 56.8757 12.0023 57.5616 C 15.2603 57.9903 18.604 57.5616 21.6906 56.1898 L 21.6049 51.7314 C 21.6906 51.6457 53.0705 47.1016 52.0417 63.306 Z " stroke-width="0.8573749661445618"/>
      <path id="ID0.6132942135445774" fill="#FFFFFF" d="M 42.3533 55.7611 C 42.3533 55.7611 30.3501 55.3324 26.7491 59.0191 C 24.3485 61.4198 26.5776 63.7347 29.3212 64.1634 C 35.6658 65.1922 46.6402 62.1057 47.3261 60.4767 L 42.3533 55.7611 Z " stroke-width="0.8573749661445618"/>
      <path id="ID0.21069183386862278" fill="none" stroke="#231F20" stroke-linecap="round" stroke-linejoin="round" d="M 52.0417 63.306 C 52.0417 63.306 42.2676 67.5929 25.3773 68.0216 C 8.9157 68.4502 0.7706 65.8781 1.8852 60.2194 C 2.9998 54.3036 8.487 56.9614 12.0023 57.5616 C 15.0888 57.9903 18.1754 58.2475 21.2619 58.2475 L 21.6049 51.7314 C 21.6906 51.6457 53.0705 47.1016 52.0417 63.306 Z " stroke-width="0.8573749661445618"/>
    </g>
    <g id="ID0.685240566264838">
      <g id="ID0.7746110348962247">
        <path id="ID0.328220805618912" fill="#F9A41F" d="M 65.5025 13.1496 C 62.3302 12.7209 59.0721 12.9781 55.9856 13.7497 L 43.8109 1.2321 L 41.8389 21.4661 C 41.8389 21.4661 35.3229 24.5526 32.4078 36.2129 C 29.1498 49.1593 39.7812 62.2771 55.9856 66.9927 C 77.5057 73.2515 96.4537 67.0784 97.5683 52.3316 C 98.1684 44.6152 92.5955 42.8147 92.5955 42.8147 C 92.5955 42.8147 94.053 38.0134 91.9096 31.3259 C 90.6235 27.2962 88.2229 23.781 85.0506 21.0374 L 84.7077 8.3483 L 74.3334 15.3787 C 71.4183 14.3499 68.5033 13.5783 65.5025 13.1496 Z " stroke-width="0.8573749661445618"/>
        <path id="ID0.6610133568756282" fill="#FFFFFF" d="M 73.3046 44.1865 C 65.331 44.1008 47.7548 32.1833 41.9246 44.1865 C 35.5801 57.2186 45.7828 64.1634 55.9856 66.9927 C 85.908 75.395 97.654 60.6481 97.5683 52.3316 C 97.5683 46.0728 95.8535 44.1008 92.5955 42.8147 C 85.0506 39.8139 81.1924 44.1865 73.3046 44.1865 Z " stroke-width="0.8573749661445618"/>
        <g id="ID0.5234180972911417">
          <path id="ID0.6854334818199277" fill="none" stroke="#231F20" stroke-linecap="round" stroke-linejoin="round" d="M 65.5025 13.1496 C 62.3302 12.7209 59.0721 12.9781 55.9856 13.7497 L 43.8109 1.2321 L 41.8389 21.4661 C 41.8389 21.4661 35.3229 24.5526 32.4078 36.2129 C 29.1498 49.1593 39.7812 62.2771 55.9856 66.9927 C 77.5057 73.2515 96.4537 67.0784 97.5683 52.3316 C 98.1684 44.6152 92.5955 42.8147 92.5955 42.8147 C 92.5955 42.8147 94.053 38.0134 91.9096 31.3259 C 90.6235 27.2962 88.2229 23.781 85.0506 21.0374 L 84.7077 8.3483 L 74.3334 15.3787 C 71.4183 14.3499 68.5033 13.5783 65.5025 13.1496 Z " stroke-width="0.8573749661445618"/>
        </g>
      </g>
      <path id="ID0.18328718142583966" fill="none" stroke="#231F20" stroke-linecap="round" stroke-linejoin="round" d="M 55.9856 13.7497 L 57.1002 14.95 " stroke-width="0.8573749661445618"/>
    </g>
    <g id="ID0.26337171206250787">
      <path id="ID0.56489945249632" fill="#FFFFFF" stroke="#231F20" stroke-linecap="round" stroke-linejoin="round" d="M 89.6804 30.8972 C 91.7381 36.2129 90.6235 41.6144 87.3655 42.9005 C 84.0218 44.1865 79.7349 40.8428 77.6772 35.527 C 75.6195 30.2113 76.7341 24.8099 79.9921 23.5238 C 83.2501 22.152 87.6227 25.5815 89.6804 30.8972 Z " stroke-width="0.8573749661445618"/>
      <path id="ID0.775096942204982" fill="#231F20" d="M 87.9657 33.8123 C 87.9657 34.8411 87.0226 35.6985 85.9937 35.6985 C 84.9649 35.6985 84.1075 34.7554 84.1075 33.7266 C 84.1075 32.6977 84.8791 31.9261 85.908 31.8403 C 87.0226 31.8403 87.9657 32.7834 87.9657 33.8123 C 87.9657 33.8123 87.9657 33.8123 87.9657 33.8123 " stroke-width="0.8573749661445618"/>
    </g>
    <g id="ID0.7706028069369495">
      <path id="ID0.9455000613816082" fill="#FFFFFF" stroke="#231F20" stroke-linecap="round" stroke-linejoin="round" d="M 63.8734 28.8395 C 65.9311 34.1552 64.3879 39.7282 60.4439 41.1857 C 56.5 42.6433 51.613 39.5567 49.641 34.241 C 47.5833 28.8395 49.1266 23.3523 53.0705 21.8948 C 57.0144 20.4372 61.9015 23.5238 63.8734 28.8395 Z " stroke-width="0.8573749661445618"/>
      <path id="ID0.35412361985072494" fill="#231F20" d="M 61.9015 32.0118 C 61.5585 33.0407 60.5297 33.6408 59.5008 33.2979 C 58.472 32.9549 57.8718 31.9261 58.2148 30.8972 C 58.472 29.9541 59.5008 29.3539 60.4439 29.6112 C 61.5585 29.7826 62.2444 30.8972 61.9015 32.0118 C 61.9015 32.0118 61.9015 32.0118 61.9015 32.0118 " stroke-width="0.8573749661445618"/>
    </g>
    <g id="ID0.7050393782556057">
      <path id="ID0.7292461628094316" fill="#231F20" stroke="#231F20" stroke-linecap="round" stroke-linejoin="round" d="M 72.9616 41.6144 C 74.7621 41.7859 78.1059 41.4429 77.9344 43.5864 C 77.7629 44.5295 75.2765 47.7018 73.2188 47.3588 C 71.1611 47.0159 67.8174 43.9293 68.3318 42.3003 C 68.8462 40.6713 71.3326 41.4429 72.9616 41.6144 Z " stroke-width="0.8573749661445618"/>
      <path id="ID0.4421373223885894" fill="none" stroke="#231F20" stroke-linecap="round" stroke-linejoin="round" d="M 79.3919 53.2747 C 79.1347 55.4181 64.988 54.3036 65.5025 51.56 " stroke-width="0.8573749661445618"/>
    </g>
    <path id="ID0.5864751464687288" fill="#F9A41F" d="M 28.2066 54.1821 C 27.5207 57.2686 23.4053 59.4978 19.1185 59.1549 C 14.8316 58.8119 12.0023 56.0683 12.7739 52.9818 C 13.5455 49.8952 17.5752 47.666 21.8621 47.9232 C 26.1489 48.2662 28.9783 51.0955 28.2066 54.1821 Z " stroke-width="0.8573749661445618"/>
    <path id="ID0.6067810989916325" fill="none" stroke="#231F20" stroke-linecap="round" stroke-linejoin="round" d="M 28.2066 54.1821 C 27.5207 57.2686 23.4053 59.4978 19.1185 59.1549 C 14.8316 58.8119 12.0023 56.0683 12.7739 52.9818 C 13.5455 49.8952 17.5752 47.666 21.8621 47.9232 C 26.1489 48.2662 28.9783 51.0955 28.2066 54.1821 Z " stroke-width="0.8573749661445618"/>
  </g>
</svg>