<svg xmlns="http://www.w3.org/2000/svg" xmlns:xlink="http://www.w3.org/1999/xlink" version="1.1" width="97.84988830343357" height="91.72188995138279" viewBox="0.18662471644345802 7.449388753098884 97.84988830343357 91.72188995138279">
  <!-- Exported by Scratch - http://scratch.mit.edu/ -->
  <g id="ID0.9007132463157177">
    <path id="ID0.635999025311321" fill="#FFFF00" stroke="none" d="M 91.0643 41.2374 C 87.1294 44.7007 82.1571 46.2409 77.3028 45.9308 C 72.4485 45.6221 67.712 43.4632 64.2486 39.5282 C 60.7852 35.5933 59.2451 30.6211 59.5552 25.7668 C 59.8639 20.9124 62.0228 16.176 65.9577 12.7126 C 69.8927 9.2492 74.8649 7.709 79.7192 8.0191 C 84.5735 8.3278 89.31 10.4868 92.7734 14.4217 C 96.2368 18.3566 97.7769 23.3288 97.4668 28.1831 C 97.1582 33.0375 94.9992 37.774 91.0643 41.2374 Z " stroke-width="1.0000000183190492"/>
    <path id="ID0.6650710590183735" fill="#FFFF00" stroke="none" d="M 91.7375 40.8294 L 26.0555 98.6405 L 0.7174 69.8527 L 66.3994 12.0416 L 91.7375 40.8294 Z " stroke-width="1.0615505959140483"/>
    <path id="ID0.7266976400278509" fill="#FFFFFF" stroke="none" d="M 88.0497 35.7157 L 25.7456 90.5537 L 9.063 71.5997 L 71.3671 16.7618 L 88.0497 35.7157 Z " stroke-width="0.9882161137819565"/>
    <path id="ID0.5143490335904062" fill="#FFFFFF" stroke="none" d="M 86.613 36.6912 C 83.9984 38.9925 80.6945 40.0155 77.4688 39.8106 C 74.2433 39.6044 71.096 38.1701 68.7947 35.5555 C 66.4934 32.9409 65.4703 29.637 65.6753 26.4114 C 65.8815 23.1858 67.3157 20.0385 69.9303 17.7372 C 72.5449 15.436 75.8489 14.4129 79.0745 14.6178 C 82.3001 14.8241 85.4473 16.2583 87.7486 18.8729 C 90.0499 21.4875 91.073 24.7914 90.868 28.0171 C 90.6618 31.2426 89.2276 34.3899 86.613 36.6912 Z " stroke-width="0.926605571446905"/>
  </g>
</svg>