<svg xmlns="http://www.w3.org/2000/svg" xmlns:xlink="http://www.w3.org/1999/xlink" version="1.1" width="86.07360076904297" height="90.53491973876953" viewBox="0.1004558801651001 0.8036999702453613 86.07360076904297 90.53491973876953">
  <!-- Exported by Scratch - http://scratch.mit.edu/ -->
  <g id="ID0.728828398976475">
    <path id="ID0.3072393317706883" fill="#F9A41E" d="M 66.2642 35.1475 C 66.2642 35.1475 80.975 27.386 84.7655 18.9927 C 88.6462 10.5092 78.9895 5.365 76.5527 11.7727 C 75.0185 15.6535 69.3327 25.581 64.1885 29.3715 C 59.2247 33.162 62.6542 37.3135 66.2642 35.1475 Z " stroke-width="0.9024999737739563"/>
    <path id="ID0.33640219923108816" fill="#F9A41E" d="M 8.053 71.9695 C 15.995 61.2297 26.2835 55.8147 26.2835 55.8147 L 44.2432 64.4787 C 44.2432 64.4787 35.7597 77.926 31.879 79.5505 C 31.879 79.5505 22.2222 78.5577 18.161 76.3015 " stroke-width="0.9024999737739563"/>
    <path id="ID0.8955257972702384" fill="#F9A41E" d="M 8.053 71.9695 C 8.053 71.9695 2.638 78.1065 0.9232 83.2507 C -1.2427 90.2 8.053 94.4417 12.1142 86.6802 C 14.19 82.619 16.356 78.1967 19.1537 75.1282 " stroke-width="0.9024999737739563"/>
    <path id="ID0.2634306978434324" fill="none" stroke="#231F20" stroke-linecap="round" stroke-linejoin="round" d="M 8.053 71.9695 C 17.1682 61.2297 26.2835 55.8147 26.2835 55.8147 L 44.2432 64.4787 C 44.2432 64.4787 35.7597 77.926 31.879 79.5505 C 31.879 79.5505 22.2222 78.5577 18.161 76.3015 " stroke-width="0.9024999737739563"/>
    <path id="ID0.3834887407720089" fill="#FFFFFF" d="M 29.5325 58.793 C 25.9225 60.4175 19.244 66.2837 21.1392 70.4352 C 23.0345 74.5867 34.1352 76.7527 39.1892 66.2837 C 42.8895 58.793 33.1425 57.2587 29.5325 58.793 Z " stroke-width="0.9024999737739563"/>
    <path id="ID0.0825743293389678" fill="none" stroke="#231F20" stroke-linecap="round" stroke-linejoin="round" d="M 8.053 71.9695 C 8.053 71.9695 2.638 78.1065 0.9232 83.2507 C -1.2427 90.2 8.053 94.4417 12.1142 86.6802 C 14.19 82.619 16.356 78.1967 19.1537 75.1282 " stroke-width="0.9024999737739563"/>
    <path id="ID0.4248275365680456" fill="#F9A41E" d="M 37.0232 82.8897 C 34.8572 88.3047 30.074 91.1025 26.2835 89.5682 C 23.0345 88.3047 22.4027 83.6117 24.659 79.5505 C 27.186 75.038 31.6082 72.4207 34.9475 73.4135 C 38.1062 74.4965 38.8282 78.287 37.0232 82.8897 Z " stroke-width="0.9024999737739563"/>
    <path id="ID0.4170016339048743" fill="none" stroke="#231F20" stroke-linecap="round" stroke-linejoin="round" d="M 37.0232 82.8897 C 34.8572 88.3047 30.074 91.1025 26.2835 89.5682 C 23.0345 88.3047 22.4027 83.6117 24.659 79.5505 C 27.186 75.038 31.6082 72.4207 34.9475 73.4135 C 38.1062 74.4965 38.8282 78.287 37.0232 82.8897 Z " stroke-width="0.9024999737739563"/>
    <path id="ID0.4534302558749914" fill="#F9A41E" d="M 17.2585 52.4755 C 17.2585 52.4755 6.6992 50.6705 2.5477 58.1612 C -2.1452 66.5545 7.8725 68.9912 10.58 63.125 C 13.829 56.5367 21.1392 57.4392 21.1392 57.4392 L 17.2585 52.4755 Z " stroke-width="0.9024999737739563"/>
    <path id="ID0.8974373424425721" fill="none" stroke="#231F20" stroke-linecap="round" stroke-linejoin="round" d="M 66.2642 35.1475 C 66.2642 35.1475 80.975 27.386 84.7655 18.9927 C 88.6462 10.5092 78.9895 5.365 76.5527 11.7727 C 75.0185 15.6535 69.3327 25.581 64.1885 29.3715 C 59.2247 33.162 62.6542 37.3135 66.2642 35.1475 Z " stroke-width="0.9024999737739563"/>
    <path id="ID0.1449340949766338" fill="none" stroke="#231F20" stroke-linecap="round" stroke-linejoin="round" d="M 17.2585 52.4755 C 17.2585 52.4755 6.1577 50.6705 2.5477 58.1612 C -1.694 66.8252 7.8725 68.9912 10.58 63.125 C 13.829 56.5367 21.1392 57.4392 21.1392 57.4392 L 17.2585 52.4755 Z " stroke-width="0.9024999737739563"/>
    <path id="ID0.8441412895917892" fill="#F9A41E" d="M 40.4527 9.9677 C 35.3987 10.2385 30.9765 12.4947 30.9765 12.4947 L 16.356 2.2965 L 18.3415 23.054 C 18.3415 23.054 12.4752 27.386 11.7532 39.66 C 11.0312 53.2877 24.2077 64.3885 41.4455 65.8325 C 64.2787 67.9082 81.9677 57.9807 80.3432 42.9992 C 79.4407 35.1475 73.394 34.3352 73.394 34.3352 C 73.394 34.3352 73.9355 29.191 70.506 22.9637 C 67.0765 16.6462 61.6615 13.9387 61.6615 13.9387 L 58.7735 1.3037 L 49.7485 10.419 C 49.7485 10.419 45.5067 9.8775 40.4527 9.9677 Z " stroke-width="0.9024999737739563"/>
    <path id="ID0.7266229740343988" fill="#FFFFFF" d="M 54.261 39.5697 C 46.319 41.104 26.2835 32.5302 22.854 45.7067 C 18.9732 59.9662 30.6155 64.93 41.3552 65.8325 C 73.9355 68.8107 82.058 51.3925 80.253 42.9992 C 78.9895 36.772 76.9137 35.0572 73.3037 34.3352 C 65.2715 32.8912 62.2932 38.1257 54.261 39.5697 Z " stroke-width="0.9024999737739563"/>
    <path id="ID0.07941257441416383" fill="none" stroke="#231F20" stroke-width="0.6317499816417693" stroke-linecap="round" stroke-linejoin="round" d="M 29.1715 11.2312 L 33.323 14.2095 "/>
    <path id="ID0.3073604479432106" fill="none" stroke="#231F20" stroke-linecap="round" stroke-linejoin="round" d="M 40.4527 9.9677 C 35.3987 10.2385 30.9765 12.4947 30.9765 12.4947 L 16.356 2.2965 L 18.3415 23.054 C 18.3415 23.054 12.4752 27.386 11.7532 39.66 C 11.0312 53.2877 24.2077 64.3885 41.4455 65.8325 C 64.2787 67.9082 81.9677 57.9807 80.3432 42.9992 C 79.4407 35.1475 73.394 34.3352 73.394 34.3352 C 73.394 34.3352 73.9355 29.191 70.506 22.9637 C 67.0765 16.6462 61.6615 13.9387 61.6615 13.9387 L 58.7735 1.3037 L 49.7485 10.419 C 49.7485 10.419 45.5067 9.8775 40.4527 9.9677 Z " stroke-width="0.9024999737739563"/>
    <path id="ID0.399786364287138" fill="#FFFFFF" stroke="#231F20" stroke-linecap="round" stroke-linejoin="round" d="M 68.1595 23.1442 C 71.228 28.108 71.228 33.6132 68.1595 35.5987 C 65.091 37.5842 60.1272 35.0572 56.9685 30.0935 C 53.9 25.1297 53.9 19.6245 56.9685 17.639 C 60.037 15.7437 65.091 18.1805 68.1595 23.1442 Z " stroke-width="0.9024999737739563"/>
    <path id="ID0.012973028235137463" fill="#231F20" d="M 66.613 26.376 C 66.974 27.5492 66.252 28.7225 65.2592 28.903 C 64.2665 29.1737 63.0932 28.4517 62.8225 27.2785 C 62.4615 26.1052 63.1835 24.932 64.1762 24.7515 C 65.169 24.571 66.252 25.293 66.613 26.376 " stroke-width="0.9024999737739563"/>
    <path id="ID0.4833636190742254" fill="#FFFFFF" stroke="#231F20" stroke-linecap="round" stroke-linejoin="round" d="M 41.8967 26.1225 C 44.9652 31.0862 44.514 36.9525 40.904 39.2087 C 37.294 41.465 31.7887 39.299 28.7202 34.3352 C 25.6517 29.3715 26.103 23.5052 29.713 21.249 C 33.323 18.9927 38.8282 21.1587 41.8967 26.1225 Z " stroke-width="0.9024999737739563"/>
    <path id="ID0.2379798092879355" fill="#231F20" d="M 40.0795 29.625 C 40.0795 30.7982 39.177 31.7007 38.094 31.7007 C 37.1012 31.7007 36.1085 30.708 36.1085 29.5347 C 36.1085 28.3615 37.011 27.459 38.094 27.459 C 39.2672 27.5492 40.0795 28.4517 40.0795 29.625 " stroke-width="0.9024999737739563"/>
    <path id="ID0.00844710785895586" fill="#231F20" stroke="#231F20" stroke-width="0.6317499816417693" stroke-linecap="round" stroke-linejoin="round" d="M 53.4487 37.0427 C 55.2537 36.772 58.5027 35.8695 58.8637 38.0355 C 58.8637 38.938 57.0587 42.6382 54.8025 42.7285 C 52.6365 42.8187 48.6655 40.2917 48.9362 38.577 C 49.207 36.9525 51.8242 37.3135 53.4487 37.0427 Z "/>
    <path id="ID0.7077047214843333" fill="none" stroke="#231F20" stroke-linecap="round" stroke-linejoin="round" d="M 60.9395 46.0677 C 61.0297 48.2337 46.8605 49.8582 47.041 47.0605 " stroke-width="0.9024999737739563"/>
    <path id="ID0.41016054805368185" fill="#231F20" stroke="#231F20" stroke-width="0.6317499816417693" stroke-linecap="round" stroke-linejoin="round" opacity="0.1" d="M 21.8612 58.9735 C 21.1392 59.515 20.327 60.1467 19.4245 60.7785 "/>
    <path id="ID0.8669978589750826" fill="#231F20" stroke="#231F20" stroke-width="0.6317499816417693" stroke-linecap="round" stroke-linejoin="round" opacity="0.1" d="M 43.1602 66.1032 C 42.7992 66.6447 42.2577 67.457 41.626 68.2692 "/>
  </g>
</svg>